<?xml version="1.0" encoding="UTF-8"?><!DOCTYPE svg PUBLIC "-//W3C//DTD SVG 1.1//EN" "http://www.w3.org/Graphics/SVG/1.1/DTD/svg11.dtd"><svg xmlns="http://www.w3.org/2000/svg"><symbol id="icon-facebook" viewBox="0 0 24 24">
    <title>
        Facebook
    </title>
    <path d="M24 23c0 .398-.593.991-1 1h-6v-9h3v-4h-3V9c-.436-1.285-.149-1.995 1-2h2V4c-.055-.277-1.188-.376-3 0-2.289-.376-4.177 1.314-4 4v3h-3v4h3v9H1c-.407 0-1-.593-1-1V1c0-.407.593-1 1-1h22c.407 0 1 .584 1 1v22z" fill-rule="evenodd"/>
</symbol><symbol id="icon-logo" viewBox="0 0 65 15">
    <title>
        Combined Shape
    </title>
    <path d="M50 0h15v15H50V0zM32.5 0L40 15H25l7.5-15zm-25 15a7.5 7.5 0 1 0 0-15 7.5 7.5 0 0 0 0 15z" fill-rule="evenodd"/>
</symbol><symbol id="icon-menu" viewBox="0 0 29 19">
    <title>
        menu
    </title>
    <path d="M0 19h29v-3.167H0V19zm0-7.917h29V7.917H0v3.166zM0 0v3.167h29V0H0z" fill-rule="evenodd"/>
</symbol><symbol id="icon-twitter" viewBox="0 0 24 20">
    <title>
        Twitter
    </title>
    <path d="M24 2.324a9.615 9.615 0 0 1-2.828.77 4.963 4.963 0 0 0 2.17-2.73c-.952.56-2.002.98-3.123 1.19A4.945 4.945 0 0 0 16.621 0a4.936 4.936 0 0 0-4.803 6.049A13.993 13.993 0 0 1 1.666.896a4.935 4.935 0 0 0-.672 2.479c0 1.708.868 3.22 2.199 4.102a4.94 4.94 0 0 1-2.227-.616v.056a4.928 4.928 0 0 0 3.949 4.831c-.42.112-.854.168-1.302.168-.322 0-.63-.028-.925-.084.63 1.96 2.45 3.389 4.607 3.417A9.905 9.905 0 0 1 0 17.293a13.942 13.942 0 0 0 7.547 2.212c9.06 0 14.017-7.505 14.017-14.016 0-.21 0-.42-.014-.644A9.337 9.337 0 0 0 24 2.325z" fill-rule="evenodd"/>
</symbol></svg>